<svg id="Calque_1" xmlns="http://www.w3.org/2000/svg" xmlns:xlink="http://www.w3.org/1999/xlink" viewBox="0 0 70.8 106.2" width="50px"><style>.st0{display:none;} .st1{display:inline;} .st2{fill:#93C254;} .st3{clip-path:url(#SVGID_2_);fill:#FFFFFF;} .st4{fill:#6F6F6E;} .st5{clip-path:url(#SVGID_4_);fill:#FFFFFF;}</style><g class="st0"><path class="st1 st2" d="M25 31.2C11.3 31.2.2 42.3.2 56c0 5.5 3.5 14.5 10.8 27.5 5.1 9.2 10.2 16.8 10.4 17.1l3.7 5.6 3.7-5.6c.2-.3 5.2-8 10.4-17.1C46.4 70.5 50 61.5 50 56c-.2-13.7-11.3-24.8-25-24.8zm0 37.5"/><g class="st1"><defs><path id="SVGID_1_" d="M6.9 39.7H43v29.5H6.9z"/></defs><clipPath id="SVGID_2_"><use xlink:href="#SVGID_1_" overflow="visible"/></clipPath><path class="st3" d="M43.1 53.1l-3.6-7.8-13.8-5.6-14.9 5.7L6.9 51l3.8-.3v12.7L25.2 69l14.3-5.7v-8.7l3.6-1.5zm-17.4-2.3v-9.9L38.1 46l-12.4 4.8zm-1.1 16.9l-12.8-5.1V46.8l12.8 5.1v15.8zm13.9-5.1l-12.8 5.1V51.9l2.8 7.5 10-4.3v7.5zm0 0"/></g></g><path class="st4" d="M35.4 0C16 0 .2 15.8.2 35.1c0 7.8 5 20.5 15.2 38.9 7.2 13 14.4 23.8 14.7 24.3l5.2 7.9 5.2-7.9C40.9 97.8 48 87 55.3 74c10.2-18.4 15.2-31.1 15.2-38.9C70.5 15.8 54.8 0 35.4 0zm0 53.1"/><defs><path id="SVGID_3_" d="M13.8 15.5h42.4v40H13.8z"/></defs><clipPath id="SVGID_4_"><use xlink:href="#SVGID_3_" overflow="visible"/></clipPath><path class="st5" d="M49 34.9c-.7 0-1.2.5-1.2 1.2v16.6h-8.6v-6.8c0-.6-.5-1.2-1.2-1.2h-6.2c-.7 0-1.2.6-1.2 1.2v6.8H22v-16c0-.6-.5-1.2-1.2-1.2-.6 0-1.2.5-1.2 1.2V54c0 .6.5 1.2 1.2 1.2h11c.6 0 1.2-.5 1.2-1.2v-6.8h3.8V54c0 .6.5 1.2 1.2 1.2h11c.6 0 1.2-.5 1.2-1.2V36.1c0-.7-.5-1.2-1.2-1.2zm0 0"/><path class="st5" d="M55.6 35.9L46 26.2v-6.6c0-.7-.6-1.2-1.2-1.2s-1.2.5-1.2 1.2v4.2l-7.9-7.9c-.2-.2-.5-.4-.8-.4-.3 0-.6.1-.9.4L14.2 35.7c-.5.5-.5 1.2 0 1.7.4.5 1.2.5 1.7 0l19-19 19 19.2c.2.2.5.3.9.3.3 0 .6-.1.9-.3.4-.5.4-1.3-.1-1.7zm0 0"/></svg>
